<?xml version="1.0" encoding="UTF-8" standalone="no"?>
<!DOCTYPE svg PUBLIC "-//W3C//DTD SVG 1.1//EN" "http://www.w3.org/Graphics/SVG/1.1/DTD/svg11.dtd">
<svg width="100%" height="100%" viewBox="0 0 3654 2060" version="1.1" xmlns="http://www.w3.org/2000/svg" xmlns:xlink="http://www.w3.org/1999/xlink" xml:space="preserve" xmlns:serif="http://www.serif.com/" style="fill-rule:evenodd;clip-rule:evenodd;stroke-linecap:round;stroke-linejoin:round;stroke-miterlimit:1.5;">
    <g transform="matrix(1,0,0,1,-64.3428,-57.9175)">
        <g transform="matrix(0.827759,0,0,0.830519,3556.36,1881.6)">
            <path d="M185.04,112.073C185.04,109.605 183.03,107.602 180.555,107.602L171.585,107.602C169.11,107.602 167.1,109.605 167.1,112.073L167.1,121.072C167.1,123.539 169.11,125.542 171.585,125.542L180.555,125.542C183.03,125.542 185.04,123.539 185.04,121.072L185.04,112.073Z" style="fill:none;stroke:rgb(175,173,251);stroke-width:6.03px;"/>
        </g>
        <g transform="matrix(0.827759,0,0,0.830519,405.164,288.155)">
            <path d="M185.04,112.073C185.04,109.605 183.03,107.602 180.555,107.602L171.585,107.602C169.11,107.602 167.1,109.605 167.1,112.073L167.1,121.072C167.1,123.539 169.11,125.542 171.585,125.542L180.555,125.542C183.03,125.542 185.04,123.539 185.04,121.072L185.04,112.073Z" style="fill:none;stroke:rgb(17,17,31);stroke-width:6.03px;"/>
        </g>
        <g transform="matrix(0.827759,0,0,0.830519,1666.39,1617.69)">
            <path d="M185.04,112.073C185.04,109.605 183.03,107.602 180.555,107.602L171.585,107.602C169.11,107.602 167.1,109.605 167.1,112.073L167.1,121.072C167.1,123.539 169.11,125.542 171.585,125.542L180.555,125.542C183.03,125.542 185.04,123.539 185.04,121.072L185.04,112.073Z" style="fill:none;stroke:rgb(17,17,31);stroke-width:6.03px;"/>
        </g>
        <g transform="matrix(0.827759,0,0,0.830519,496.182,1441.69)">
            <path d="M185.04,112.073C185.04,109.605 183.03,107.602 180.555,107.602L171.585,107.602C169.11,107.602 167.1,109.605 167.1,112.073L167.1,121.072C167.1,123.539 169.11,125.542 171.585,125.542L180.555,125.542C183.03,125.542 185.04,123.539 185.04,121.072L185.04,112.073Z" style="fill:none;stroke:rgb(17,17,31);stroke-width:6.03px;"/>
        </g>
        <g transform="matrix(0.827759,0,0,0.830519,3160.71,475.489)">
            <path d="M185.04,112.073C185.04,109.605 183.03,107.602 180.555,107.602L171.585,107.602C169.11,107.602 167.1,109.605 167.1,112.073L167.1,121.072C167.1,123.539 169.11,125.542 171.585,125.542L180.555,125.542C183.03,125.542 185.04,123.539 185.04,121.072L185.04,112.073Z" style="fill:none;stroke:rgb(250,215,47);stroke-width:6.03px;"/>
        </g>
        <g transform="matrix(0.632609,-0.632609,0.633085,0.633085,-203.618,183.43)">
            <path d="M308.785,118.658L318.54,137.202L299.031,137.202L308.785,118.658Z" style="fill:none;stroke:rgb(219,52,105);stroke-width:5.59px;"/>
        </g>
        <g transform="matrix(0.632609,-0.632609,0.633085,0.633085,2283.44,1842.49)">
            <path d="M308.785,118.658L318.54,137.202L299.031,137.202L308.785,118.658Z" style="fill:none;stroke:rgb(219,52,105);stroke-width:5.59px;"/>
        </g>
        <g transform="matrix(0.632609,-0.632609,0.633085,0.633085,2223.43,594.011)">
            <path d="M308.785,118.658L318.54,137.202L299.031,137.202L308.785,118.658Z" style="fill:none;stroke:rgb(219,52,105);stroke-width:5.59px;"/>
        </g>
        <g transform="matrix(0.878503,0.169173,-0.1693,0.879165,505.146,810.31)">
            <path d="M308.785,118.658L318.54,137.202L299.031,137.202L308.785,118.658Z" style="fill:none;stroke:rgb(117,230,224);stroke-width:5.59px;"/>
        </g>
        <g transform="matrix(0.878503,0.169173,-0.1693,0.879165,1981.54,1038.73)">
            <path d="M308.785,118.658L318.54,137.202L299.031,137.202L308.785,118.658Z" style="fill:none;stroke:rgb(117,230,224);stroke-width:5.59px;"/>
        </g>
        <g transform="matrix(0.878503,0.169173,-0.1693,0.879165,3455.47,866.34)">
            <path d="M308.785,118.658L318.54,137.202L299.031,137.202L308.785,118.658Z" style="fill:none;stroke:rgb(117,230,224);stroke-width:5.59px;"/>
        </g>
        <g transform="matrix(0.878503,0.169173,-0.1693,0.879165,1320.63,-96.1403)">
            <path d="M308.785,118.658L318.54,137.202L299.031,137.202L308.785,118.658Z" style="fill:none;stroke:rgb(117,230,224);stroke-width:5.59px;"/>
        </g>
        <g transform="matrix(1.12236,0,0,1.11156,2759.16,-32.2439)">
            <path d="M203.286,99.871L211.299,105.693L208.238,115.113L198.334,115.113L195.273,105.693L203.286,99.871Z" style="fill:none;stroke:rgb(219,52,105);stroke-width:4.48px;"/>
        </g>
        <g transform="matrix(1.12236,0,0,1.11156,1519.36,715.853)">
            <path d="M203.286,99.871C204.414,103.343 207.649,105.693 211.299,105.693C208.346,107.838 207.11,111.641 208.238,115.113C205.285,112.967 201.287,112.967 198.334,115.113C199.462,111.641 198.226,107.838 195.273,105.693C198.923,105.693 202.158,103.343 203.286,99.871Z" style="fill:none;stroke:rgb(17,17,31);stroke-width:4.48px;"/>
        </g>
        <g transform="matrix(0.707107,0.707107,-0.707107,0.707107,-29.5238,780.384)">
            <g transform="matrix(0.780281,0,0,0.781263,56.4012,22.7836)">
                <path d="M234.778,90.993L256.698,90.993" style="fill:none;stroke:rgb(175,173,251);stroke-width:6.4px;"/>
            </g>
            <g transform="matrix(4.77785e-17,-0.781263,0.780281,4.78386e-17,177.145,285.859)">
                <path d="M234.778,90.993L256.698,90.993" style="fill:none;stroke:rgb(175,173,251);stroke-width:6.4px;"/>
            </g>
        </g>
        <g transform="matrix(0.707107,0.707107,-0.707107,0.707107,2710.46,744.025)">
            <g transform="matrix(0.780281,0,0,0.781263,56.4012,22.7836)">
                <path d="M234.778,90.993L256.698,90.993" style="fill:none;stroke:rgb(175,173,251);stroke-width:6.4px;"/>
            </g>
            <g transform="matrix(4.77785e-17,-0.781263,0.780281,4.78386e-17,177.145,285.859)">
                <path d="M234.778,90.993L256.698,90.993" style="fill:none;stroke:rgb(175,173,251);stroke-width:6.4px;"/>
            </g>
        </g>
        <g transform="matrix(0.707107,0.707107,-0.707107,0.707107,2996.14,1313.3)">
            <g transform="matrix(0.780281,0,0,0.781263,56.4012,22.7836)">
                <path d="M234.778,90.993L256.698,90.993" style="fill:none;stroke:rgb(175,173,251);stroke-width:6.4px;"/>
            </g>
            <g transform="matrix(4.77785e-17,-0.781263,0.780281,4.78386e-17,177.145,285.859)">
                <path d="M234.778,90.993L256.698,90.993" style="fill:none;stroke:rgb(175,173,251);stroke-width:6.4px;"/>
            </g>
        </g>
        <g transform="matrix(0.707107,0.707107,-0.707107,0.707107,1069.36,259.442)">
            <g transform="matrix(0.780281,0,0,0.781263,56.4012,22.7836)">
                <path d="M234.778,90.993L256.698,90.993" style="fill:none;stroke:rgb(175,173,251);stroke-width:6.4px;"/>
            </g>
            <g transform="matrix(4.77785e-17,-0.781263,0.780281,4.78386e-17,177.145,285.859)">
                <path d="M234.778,90.993L256.698,90.993" style="fill:none;stroke:rgb(175,173,251);stroke-width:6.4px;"/>
            </g>
        </g>
        <g transform="matrix(0.707107,0.707107,-0.707107,0.707107,3600.25,-106.955)">
            <g transform="matrix(0.780281,0,0,0.781263,56.4012,22.7836)">
                <path d="M234.778,90.993L256.698,90.993" style="fill:none;stroke:rgb(175,173,251);stroke-width:6.4px;"/>
            </g>
            <g transform="matrix(4.77785e-17,-0.781263,0.780281,4.78386e-17,177.145,285.859)">
                <path d="M234.778,90.993L256.698,90.993" style="fill:none;stroke:rgb(175,173,251);stroke-width:6.4px;"/>
            </g>
        </g>
        <g transform="matrix(0.707107,-0.707107,0.707107,0.707107,1024.02,1380.7)">
            <g transform="matrix(0.780281,0,0,0.781263,56.4012,22.7836)">
                <path d="M234.778,90.993L256.698,90.993" style="fill:none;stroke:rgb(219,52,105);stroke-width:6.4px;"/>
            </g>
            <g transform="matrix(4.77785e-17,-0.781263,0.780281,4.78386e-17,177.145,285.859)">
                <path d="M234.778,90.993L256.698,90.993" style="fill:none;stroke:rgb(219,52,105);stroke-width:6.4px;"/>
            </g>
        </g>
        <g transform="matrix(1,0,0,1,934.08,1973.34)">
            <g transform="matrix(0.780281,0,0,0.781263,56.4012,22.7836)">
                <path d="M234.778,90.993L256.698,90.993" style="fill:none;stroke:rgb(219,52,105);stroke-width:6.4px;"/>
            </g>
            <g transform="matrix(4.77785e-17,-0.781263,0.780281,4.78386e-17,177.145,285.859)">
                <path d="M234.778,90.993L256.698,90.993" style="fill:none;stroke:rgb(219,52,105);stroke-width:6.4px;"/>
            </g>
        </g>
        <g transform="matrix(0.866025,0.5,-0.5,0.866025,-1.16507,1739.28)">
            <g transform="matrix(0.780281,0,0,0.781263,56.4012,22.7836)">
                <path d="M234.778,90.993L256.698,90.993" style="fill:none;stroke:rgb(117,230,224);stroke-width:6.4px;"/>
            </g>
            <g transform="matrix(4.77785e-17,-0.781263,0.780281,4.78386e-17,177.145,285.859)">
                <path d="M234.778,90.993L256.698,90.993" style="fill:none;stroke:rgb(117,230,224);stroke-width:6.4px;"/>
            </g>
        </g>
        <g transform="matrix(0.866025,0.5,-0.5,0.866025,2690.18,1902.14)">
            <g transform="matrix(0.780281,0,0,0.781263,56.4012,22.7836)">
                <path d="M234.778,90.993L256.698,90.993" style="fill:none;stroke:rgb(117,230,224);stroke-width:6.4px;"/>
            </g>
            <g transform="matrix(4.77785e-17,-0.781263,0.780281,4.78386e-17,177.145,285.859)">
                <path d="M234.778,90.993L256.698,90.993" style="fill:none;stroke:rgb(117,230,224);stroke-width:6.4px;"/>
            </g>
        </g>
    </g>
</svg>
