<?xml version="1.0" encoding="UTF-8" standalone="no"?>
<!DOCTYPE svg PUBLIC "-//W3C//DTD SVG 1.1//EN" "http://www.w3.org/Graphics/SVG/1.1/DTD/svg11.dtd">
<svg width="100%" height="100%" viewBox="0 0 3682 11369" version="1.1" xmlns="http://www.w3.org/2000/svg" xmlns:xlink="http://www.w3.org/1999/xlink" xml:space="preserve" xmlns:serif="http://www.serif.com/" style="fill-rule:evenodd;clip-rule:evenodd;stroke-linecap:round;stroke-linejoin:round;stroke-miterlimit:1.5;">
    <g transform="matrix(1,0,0,1,-64.3428,-57.9175)">
        <g transform="matrix(0.827759,0,0,0.830519,3556.36,1881.6)">
            <path d="M185.04,112.073C185.04,109.605 183.03,107.602 180.555,107.602L171.585,107.602C169.11,107.602 167.1,109.605 167.1,112.073L167.1,121.072C167.1,123.539 169.11,125.542 171.585,125.542L180.555,125.542C183.03,125.542 185.04,123.539 185.04,121.072L185.04,112.073Z" style="fill:none;stroke:rgb(175,173,251);stroke-width:6.03px;"/>
        </g>
        <g transform="matrix(0.827759,0,0,0.830519,3583.84,6315.12)">
            <path d="M185.04,112.073C185.04,109.605 183.03,107.602 180.555,107.602L171.585,107.602C169.11,107.602 167.1,109.605 167.1,112.073L167.1,121.072C167.1,123.539 169.11,125.542 171.585,125.542L180.555,125.542C183.03,125.542 185.04,123.539 185.04,121.072L185.04,112.073Z" style="fill:none;stroke:rgb(175,173,251);stroke-width:6.03px;"/>
        </g>
        <g transform="matrix(0.827759,0,0,0.830519,3557.25,4160.7)">
            <path d="M185.04,112.073C185.04,109.605 183.03,107.602 180.555,107.602L171.585,107.602C169.11,107.602 167.1,109.605 167.1,112.073L167.1,121.072C167.1,123.539 169.11,125.542 171.585,125.542L180.555,125.542C183.03,125.542 185.04,123.539 185.04,121.072L185.04,112.073Z" style="fill:none;stroke:rgb(175,173,251);stroke-width:6.03px;"/>
        </g>
        <g transform="matrix(0.827759,0,0,0.830519,3584.73,8594.22)">
            <path d="M185.04,112.073C185.04,109.605 183.03,107.602 180.555,107.602L171.585,107.602C169.11,107.602 167.1,109.605 167.1,112.073L167.1,121.072C167.1,123.539 169.11,125.542 171.585,125.542L180.555,125.542C183.03,125.542 185.04,123.539 185.04,121.072L185.04,112.073Z" style="fill:none;stroke:rgb(175,173,251);stroke-width:6.03px;"/>
        </g>
        <g transform="matrix(0.827759,0,0,0.830519,3565.23,11190.2)">
            <path d="M185.04,112.073C185.04,109.605 183.03,107.602 180.555,107.602L171.585,107.602C169.11,107.602 167.1,109.605 167.1,112.073L167.1,121.072C167.1,123.539 169.11,125.542 171.585,125.542L180.555,125.542C183.03,125.542 185.04,123.539 185.04,121.072L185.04,112.073Z" style="fill:none;stroke:rgb(175,173,251);stroke-width:6.03px;"/>
        </g>
        <g transform="matrix(0.827759,0,0,0.830519,405.164,288.155)">
            <path d="M185.04,112.073C185.04,109.605 183.03,107.602 180.555,107.602L171.585,107.602C169.11,107.602 167.1,109.605 167.1,112.073L167.1,121.072C167.1,123.539 169.11,125.542 171.585,125.542L180.555,125.542C183.03,125.542 185.04,123.539 185.04,121.072L185.04,112.073Z" style="fill:none;stroke:rgb(17,17,31);stroke-width:6.03px;"/>
        </g>
        <g transform="matrix(0.827759,0,0,0.830519,432.645,4721.68)">
            <path d="M185.04,112.073C185.04,109.605 183.03,107.602 180.555,107.602L171.585,107.602C169.11,107.602 167.1,109.605 167.1,112.073L167.1,121.072C167.1,123.539 169.11,125.542 171.585,125.542L180.555,125.542C183.03,125.542 185.04,123.539 185.04,121.072L185.04,112.073Z" style="fill:none;stroke:rgb(17,17,31);stroke-width:6.03px;"/>
        </g>
        <g transform="matrix(0.827759,0,0,0.830519,406.056,2567.26)">
            <path d="M185.04,112.073C185.04,109.605 183.03,107.602 180.555,107.602L171.585,107.602C169.11,107.602 167.1,109.605 167.1,112.073L167.1,121.072C167.1,123.539 169.11,125.542 171.585,125.542L180.555,125.542C183.03,125.542 185.04,123.539 185.04,121.072L185.04,112.073Z" style="fill:none;stroke:rgb(17,17,31);stroke-width:6.03px;"/>
        </g>
        <g transform="matrix(0.827759,0,0,0.830519,433.537,7000.78)">
            <path d="M185.04,112.073C185.04,109.605 183.03,107.602 180.555,107.602L171.585,107.602C169.11,107.602 167.1,109.605 167.1,112.073L167.1,121.072C167.1,123.539 169.11,125.542 171.585,125.542L180.555,125.542C183.03,125.542 185.04,123.539 185.04,121.072L185.04,112.073Z" style="fill:none;stroke:rgb(17,17,31);stroke-width:6.03px;"/>
        </g>
        <g transform="matrix(0.827759,0,0,0.830519,414.039,9596.73)">
            <path d="M185.04,112.073C185.04,109.605 183.03,107.602 180.555,107.602L171.585,107.602C169.11,107.602 167.1,109.605 167.1,112.073L167.1,121.072C167.1,123.539 169.11,125.542 171.585,125.542L180.555,125.542C183.03,125.542 185.04,123.539 185.04,121.072L185.04,112.073Z" style="fill:none;stroke:rgb(17,17,31);stroke-width:6.03px;"/>
        </g>
        <g transform="matrix(0.827759,0,0,0.830519,1666.39,1617.69)">
            <path d="M185.04,112.073C185.04,109.605 183.03,107.602 180.555,107.602L171.585,107.602C169.11,107.602 167.1,109.605 167.1,112.073L167.1,121.072C167.1,123.539 169.11,125.542 171.585,125.542L180.555,125.542C183.03,125.542 185.04,123.539 185.04,121.072L185.04,112.073Z" style="fill:none;stroke:rgb(17,17,31);stroke-width:6.03px;"/>
        </g>
        <g transform="matrix(0.827759,0,0,0.830519,1693.87,6051.21)">
            <path d="M185.04,112.073C185.04,109.605 183.03,107.602 180.555,107.602L171.585,107.602C169.11,107.602 167.1,109.605 167.1,112.073L167.1,121.072C167.1,123.539 169.11,125.542 171.585,125.542L180.555,125.542C183.03,125.542 185.04,123.539 185.04,121.072L185.04,112.073Z" style="fill:none;stroke:rgb(17,17,31);stroke-width:6.03px;"/>
        </g>
        <g transform="matrix(0.827759,0,0,0.830519,1667.28,3896.8)">
            <path d="M185.04,112.073C185.04,109.605 183.03,107.602 180.555,107.602L171.585,107.602C169.11,107.602 167.1,109.605 167.1,112.073L167.1,121.072C167.1,123.539 169.11,125.542 171.585,125.542L180.555,125.542C183.03,125.542 185.04,123.539 185.04,121.072L185.04,112.073Z" style="fill:none;stroke:rgb(17,17,31);stroke-width:6.03px;"/>
        </g>
        <g transform="matrix(0.827759,0,0,0.830519,1694.76,8330.32)">
            <path d="M185.04,112.073C185.04,109.605 183.03,107.602 180.555,107.602L171.585,107.602C169.11,107.602 167.1,109.605 167.1,112.073L167.1,121.072C167.1,123.539 169.11,125.542 171.585,125.542L180.555,125.542C183.03,125.542 185.04,123.539 185.04,121.072L185.04,112.073Z" style="fill:none;stroke:rgb(17,17,31);stroke-width:6.03px;"/>
        </g>
        <g transform="matrix(0.827759,0,0,0.830519,1675.27,10926.3)">
            <path d="M185.04,112.073C185.04,109.605 183.03,107.602 180.555,107.602L171.585,107.602C169.11,107.602 167.1,109.605 167.1,112.073L167.1,121.072C167.1,123.539 169.11,125.542 171.585,125.542L180.555,125.542C183.03,125.542 185.04,123.539 185.04,121.072L185.04,112.073Z" style="fill:none;stroke:rgb(17,17,31);stroke-width:6.03px;"/>
        </g>
        <g transform="matrix(0.827759,0,0,0.830519,496.182,1441.69)">
            <path d="M185.04,112.073C185.04,109.605 183.03,107.602 180.555,107.602L171.585,107.602C169.11,107.602 167.1,109.605 167.1,112.073L167.1,121.072C167.1,123.539 169.11,125.542 171.585,125.542L180.555,125.542C183.03,125.542 185.04,123.539 185.04,121.072L185.04,112.073Z" style="fill:none;stroke:rgb(17,17,31);stroke-width:6.03px;"/>
        </g>
        <g transform="matrix(0.827759,0,0,0.830519,523.662,5875.21)">
            <path d="M185.04,112.073C185.04,109.605 183.03,107.602 180.555,107.602L171.585,107.602C169.11,107.602 167.1,109.605 167.1,112.073L167.1,121.072C167.1,123.539 169.11,125.542 171.585,125.542L180.555,125.542C183.03,125.542 185.04,123.539 185.04,121.072L185.04,112.073Z" style="fill:none;stroke:rgb(17,17,31);stroke-width:6.03px;"/>
        </g>
        <g transform="matrix(0.827759,0,0,0.830519,497.074,3720.8)">
            <path d="M185.04,112.073C185.04,109.605 183.03,107.602 180.555,107.602L171.585,107.602C169.11,107.602 167.1,109.605 167.1,112.073L167.1,121.072C167.1,123.539 169.11,125.542 171.585,125.542L180.555,125.542C183.03,125.542 185.04,123.539 185.04,121.072L185.04,112.073Z" style="fill:none;stroke:rgb(17,17,31);stroke-width:6.03px;"/>
        </g>
        <g transform="matrix(0.827759,0,0,0.830519,524.555,8154.32)">
            <path d="M185.04,112.073C185.04,109.605 183.03,107.602 180.555,107.602L171.585,107.602C169.11,107.602 167.1,109.605 167.1,112.073L167.1,121.072C167.1,123.539 169.11,125.542 171.585,125.542L180.555,125.542C183.03,125.542 185.04,123.539 185.04,121.072L185.04,112.073Z" style="fill:none;stroke:rgb(17,17,31);stroke-width:6.03px;"/>
        </g>
        <g transform="matrix(0.827759,0,0,0.830519,505.057,10750.3)">
            <path d="M185.04,112.073C185.04,109.605 183.03,107.602 180.555,107.602L171.585,107.602C169.11,107.602 167.1,109.605 167.1,112.073L167.1,121.072C167.1,123.539 169.11,125.542 171.585,125.542L180.555,125.542C183.03,125.542 185.04,123.539 185.04,121.072L185.04,112.073Z" style="fill:none;stroke:rgb(17,17,31);stroke-width:6.03px;"/>
        </g>
        <g transform="matrix(0.827759,0,0,0.830519,3160.71,475.489)">
            <path d="M185.04,112.073C185.04,109.605 183.03,107.602 180.555,107.602L171.585,107.602C169.11,107.602 167.1,109.605 167.1,112.073L167.1,121.072C167.1,123.539 169.11,125.542 171.585,125.542L180.555,125.542C183.03,125.542 185.04,123.539 185.04,121.072L185.04,112.073Z" style="fill:none;stroke:rgb(250,215,47);stroke-width:6.03px;"/>
        </g>
        <g transform="matrix(0.827759,0,0,0.830519,3188.19,4909.01)">
            <path d="M185.04,112.073C185.04,109.605 183.03,107.602 180.555,107.602L171.585,107.602C169.11,107.602 167.1,109.605 167.1,112.073L167.1,121.072C167.1,123.539 169.11,125.542 171.585,125.542L180.555,125.542C183.03,125.542 185.04,123.539 185.04,121.072L185.04,112.073Z" style="fill:none;stroke:rgb(250,215,47);stroke-width:6.03px;"/>
        </g>
        <g transform="matrix(0.827759,0,0,0.830519,3161.6,2754.59)">
            <path d="M185.04,112.073C185.04,109.605 183.03,107.602 180.555,107.602L171.585,107.602C169.11,107.602 167.1,109.605 167.1,112.073L167.1,121.072C167.1,123.539 169.11,125.542 171.585,125.542L180.555,125.542C183.03,125.542 185.04,123.539 185.04,121.072L185.04,112.073Z" style="fill:none;stroke:rgb(250,215,47);stroke-width:6.03px;"/>
        </g>
        <g transform="matrix(0.827759,0,0,0.830519,3189.08,7188.12)">
            <path d="M185.04,112.073C185.04,109.605 183.03,107.602 180.555,107.602L171.585,107.602C169.11,107.602 167.1,109.605 167.1,112.073L167.1,121.072C167.1,123.539 169.11,125.542 171.585,125.542L180.555,125.542C183.03,125.542 185.04,123.539 185.04,121.072L185.04,112.073Z" style="fill:none;stroke:rgb(250,215,47);stroke-width:6.03px;"/>
        </g>
        <g transform="matrix(0.827759,0,0,0.830519,3169.58,9784.07)">
            <path d="M185.04,112.073C185.04,109.605 183.03,107.602 180.555,107.602L171.585,107.602C169.11,107.602 167.1,109.605 167.1,112.073L167.1,121.072C167.1,123.539 169.11,125.542 171.585,125.542L180.555,125.542C183.03,125.542 185.04,123.539 185.04,121.072L185.04,112.073Z" style="fill:none;stroke:rgb(250,215,47);stroke-width:6.03px;"/>
        </g>
        <g transform="matrix(0.632609,-0.632609,0.633085,0.633085,-203.618,183.43)">
            <path d="M308.785,118.658L318.54,137.202L299.031,137.202L308.785,118.658Z" style="fill:none;stroke:rgb(219,52,105);stroke-width:5.59px;"/>
        </g>
        <g transform="matrix(0.632609,-0.632609,0.633085,0.633085,-202.726,2462.54)">
            <path d="M308.785,118.658L318.54,137.202L299.031,137.202L308.785,118.658Z" style="fill:none;stroke:rgb(219,52,105);stroke-width:5.59px;"/>
        </g>
        <g transform="matrix(0.632609,-0.632609,0.633085,0.633085,-175.245,6896.06)">
            <path d="M308.785,118.658L318.54,137.202L299.031,137.202L308.785,118.658Z" style="fill:none;stroke:rgb(219,52,105);stroke-width:5.59px;"/>
        </g>
        <g transform="matrix(0.632609,-0.632609,0.633085,0.633085,-194.743,9492.01)">
            <path d="M308.785,118.658L318.54,137.202L299.031,137.202L308.785,118.658Z" style="fill:none;stroke:rgb(219,52,105);stroke-width:5.59px;"/>
        </g>
        <g transform="matrix(0.632609,-0.632609,0.633085,0.633085,2283.44,1842.49)">
            <path d="M308.785,118.658L318.54,137.202L299.031,137.202L308.785,118.658Z" style="fill:none;stroke:rgb(219,52,105);stroke-width:5.59px;"/>
        </g>
        <g transform="matrix(0.632609,-0.632609,0.633085,0.633085,2310.92,6276.01)">
            <path d="M308.785,118.658L318.54,137.202L299.031,137.202L308.785,118.658Z" style="fill:none;stroke:rgb(219,52,105);stroke-width:5.59px;"/>
        </g>
        <g transform="matrix(0.632609,-0.632609,0.633085,0.633085,2284.33,4121.59)">
            <path d="M308.785,118.658L318.54,137.202L299.031,137.202L308.785,118.658Z" style="fill:none;stroke:rgb(219,52,105);stroke-width:5.59px;"/>
        </g>
        <g transform="matrix(0.632609,-0.632609,0.633085,0.633085,2311.81,8555.11)">
            <path d="M308.785,118.658L318.54,137.202L299.031,137.202L308.785,118.658Z" style="fill:none;stroke:rgb(219,52,105);stroke-width:5.59px;"/>
        </g>
        <g transform="matrix(0.632609,-0.632609,0.633085,0.633085,2292.31,11151.1)">
            <path d="M308.785,118.658L318.54,137.202L299.031,137.202L308.785,118.658Z" style="fill:none;stroke:rgb(219,52,105);stroke-width:5.59px;"/>
        </g>
        <g transform="matrix(0.632609,-0.632609,0.633085,0.633085,2223.43,594.011)">
            <path d="M308.785,118.658L318.54,137.202L299.031,137.202L308.785,118.658Z" style="fill:none;stroke:rgb(219,52,105);stroke-width:5.59px;"/>
        </g>
        <g transform="matrix(0.632609,-0.632609,0.633085,0.633085,2250.91,5027.53)">
            <path d="M308.785,118.658L318.54,137.202L299.031,137.202L308.785,118.658Z" style="fill:none;stroke:rgb(219,52,105);stroke-width:5.59px;"/>
        </g>
        <g transform="matrix(0.632609,-0.632609,0.633085,0.633085,2224.32,2873.12)">
            <path d="M308.785,118.658L318.54,137.202L299.031,137.202L308.785,118.658Z" style="fill:none;stroke:rgb(219,52,105);stroke-width:5.59px;"/>
        </g>
        <g transform="matrix(0.632609,-0.632609,0.633085,0.633085,2251.8,7306.64)">
            <path d="M308.785,118.658L318.54,137.202L299.031,137.202L308.785,118.658Z" style="fill:none;stroke:rgb(219,52,105);stroke-width:5.59px;"/>
        </g>
        <g transform="matrix(0.632609,-0.632609,0.633085,0.633085,2232.3,9902.59)">
            <path d="M308.785,118.658L318.54,137.202L299.031,137.202L308.785,118.658Z" style="fill:none;stroke:rgb(219,52,105);stroke-width:5.59px;"/>
        </g>
        <g transform="matrix(0.878503,0.169173,-0.1693,0.879165,505.146,810.31)">
            <path d="M308.785,118.658L318.54,137.202L299.031,137.202L308.785,118.658Z" style="fill:none;stroke:rgb(117,230,224);stroke-width:5.59px;"/>
        </g>
        <g transform="matrix(0.878503,0.169173,-0.1693,0.879165,532.627,5243.83)">
            <path d="M308.785,118.658L318.54,137.202L299.031,137.202L308.785,118.658Z" style="fill:none;stroke:rgb(117,230,224);stroke-width:5.59px;"/>
        </g>
        <g transform="matrix(0.878503,0.169173,-0.1693,0.879165,506.039,3089.41)">
            <path d="M308.785,118.658L318.54,137.202L299.031,137.202L308.785,118.658Z" style="fill:none;stroke:rgb(117,230,224);stroke-width:5.59px;"/>
        </g>
        <g transform="matrix(0.878503,0.169173,-0.1693,0.879165,533.519,7522.94)">
            <path d="M308.785,118.658L318.54,137.202L299.031,137.202L308.785,118.658Z" style="fill:none;stroke:rgb(117,230,224);stroke-width:5.59px;"/>
        </g>
        <g transform="matrix(0.878503,0.169173,-0.1693,0.879165,514.022,10118.9)">
            <path d="M308.785,118.658L318.54,137.202L299.031,137.202L308.785,118.658Z" style="fill:none;stroke:rgb(117,230,224);stroke-width:5.59px;"/>
        </g>
        <g transform="matrix(0.878503,0.169173,-0.1693,0.879165,1981.54,1038.73)">
            <path d="M308.785,118.658L318.54,137.202L299.031,137.202L308.785,118.658Z" style="fill:none;stroke:rgb(117,230,224);stroke-width:5.59px;"/>
        </g>
        <g transform="matrix(0.878503,0.169173,-0.1693,0.879165,2009.02,5472.25)">
            <path d="M308.785,118.658L318.54,137.202L299.031,137.202L308.785,118.658Z" style="fill:none;stroke:rgb(117,230,224);stroke-width:5.59px;"/>
        </g>
        <g transform="matrix(0.878503,0.169173,-0.1693,0.879165,1982.43,3317.83)">
            <path d="M308.785,118.658L318.54,137.202L299.031,137.202L308.785,118.658Z" style="fill:none;stroke:rgb(117,230,224);stroke-width:5.59px;"/>
        </g>
        <g transform="matrix(0.878503,0.169173,-0.1693,0.879165,2009.91,7751.36)">
            <path d="M308.785,118.658L318.54,137.202L299.031,137.202L308.785,118.658Z" style="fill:none;stroke:rgb(117,230,224);stroke-width:5.59px;"/>
        </g>
        <g transform="matrix(0.878503,0.169173,-0.1693,0.879165,1990.41,10347.3)">
            <path d="M308.785,118.658L318.54,137.202L299.031,137.202L308.785,118.658Z" style="fill:none;stroke:rgb(117,230,224);stroke-width:5.59px;"/>
        </g>
        <g transform="matrix(0.878503,0.169173,-0.1693,0.879165,3455.47,866.34)">
            <path d="M308.785,118.658L318.54,137.202L299.031,137.202L308.785,118.658Z" style="fill:none;stroke:rgb(117,230,224);stroke-width:5.59px;"/>
        </g>
        <g transform="matrix(0.878503,0.169173,-0.1693,0.879165,3482.95,5299.86)">
            <path d="M308.785,118.658L318.54,137.202L299.031,137.202L308.785,118.658Z" style="fill:none;stroke:rgb(117,230,224);stroke-width:5.59px;"/>
        </g>
        <g transform="matrix(0.878503,0.169173,-0.1693,0.879165,3456.36,3145.45)">
            <path d="M308.785,118.658L318.54,137.202L299.031,137.202L308.785,118.658Z" style="fill:none;stroke:rgb(117,230,224);stroke-width:5.59px;"/>
        </g>
        <g transform="matrix(0.878503,0.169173,-0.1693,0.879165,3483.84,7578.97)">
            <path d="M308.785,118.658L318.54,137.202L299.031,137.202L308.785,118.658Z" style="fill:none;stroke:rgb(117,230,224);stroke-width:5.59px;"/>
        </g>
        <g transform="matrix(0.878503,0.169173,-0.1693,0.879165,3464.35,10174.9)">
            <path d="M308.785,118.658L318.54,137.202L299.031,137.202L308.785,118.658Z" style="fill:none;stroke:rgb(117,230,224);stroke-width:5.59px;"/>
        </g>
        <g transform="matrix(0.878503,0.169173,-0.1693,0.879165,1320.63,-96.1403)">
            <path d="M308.785,118.658L318.54,137.202L299.031,137.202L308.785,118.658Z" style="fill:none;stroke:rgb(117,230,224);stroke-width:5.59px;"/>
        </g>
        <g transform="matrix(0.878503,0.169173,-0.1693,0.879165,1321.52,2182.97)">
            <path d="M308.785,118.658L318.54,137.202L299.031,137.202L308.785,118.658Z" style="fill:none;stroke:rgb(117,230,224);stroke-width:5.59px;"/>
        </g>
        <g transform="matrix(0.878503,0.169173,-0.1693,0.879165,1349,6616.49)">
            <path d="M308.785,118.658L318.54,137.202L299.031,137.202L308.785,118.658Z" style="fill:none;stroke:rgb(117,230,224);stroke-width:5.59px;"/>
        </g>
        <g transform="matrix(0.878503,0.169173,-0.1693,0.879165,1329.5,9212.44)">
            <path d="M308.785,118.658L318.54,137.202L299.031,137.202L308.785,118.658Z" style="fill:none;stroke:rgb(117,230,224);stroke-width:5.59px;"/>
        </g>
        <g transform="matrix(1.12236,0,0,1.11156,2759.16,-32.2439)">
            <path d="M203.286,99.871L211.299,105.693L208.238,115.113L198.334,115.113L195.273,105.693L203.286,99.871Z" style="fill:none;stroke:rgb(219,52,105);stroke-width:4.48px;"/>
        </g>
        <g transform="matrix(1.12236,0,0,1.11156,2786.64,4401.28)">
            <path d="M203.286,99.871L211.299,105.693L208.238,115.113L198.334,115.113L195.273,105.693L203.286,99.871Z" style="fill:none;stroke:rgb(219,52,105);stroke-width:4.48px;"/>
        </g>
        <g transform="matrix(1.12236,0,0,1.11156,2760.05,2246.86)">
            <path d="M203.286,99.871L211.299,105.693L208.238,115.113L198.334,115.113L195.273,105.693L203.286,99.871Z" style="fill:none;stroke:rgb(219,52,105);stroke-width:4.48px;"/>
        </g>
        <g transform="matrix(1.12236,0,0,1.11156,2787.53,6680.38)">
            <path d="M203.286,99.871L211.299,105.693L208.238,115.113L198.334,115.113L195.273,105.693L203.286,99.871Z" style="fill:none;stroke:rgb(219,52,105);stroke-width:4.48px;"/>
        </g>
        <g transform="matrix(1.12236,0,0,1.11156,2768.04,9276.33)">
            <path d="M203.286,99.871L211.299,105.693L208.238,115.113L198.334,115.113L195.273,105.693L203.286,99.871Z" style="fill:none;stroke:rgb(219,52,105);stroke-width:4.48px;"/>
        </g>
        <g transform="matrix(1.12236,0,0,1.11156,1519.36,715.853)">
            <path d="M203.286,99.871C204.414,103.343 207.649,105.693 211.299,105.693C208.346,107.838 207.11,111.641 208.238,115.113C205.285,112.967 201.287,112.967 198.334,115.113C199.462,111.641 198.226,107.838 195.273,105.693C198.923,105.693 202.158,103.343 203.286,99.871Z" style="fill:none;stroke:rgb(17,17,31);stroke-width:4.48px;"/>
        </g>
        <g transform="matrix(1.12236,0,0,1.11156,1546.84,5149.37)">
            <path d="M203.286,99.871C204.414,103.343 207.649,105.693 211.299,105.693C208.346,107.838 207.11,111.641 208.238,115.113C205.285,112.967 201.287,112.967 198.334,115.113C199.462,111.641 198.226,107.838 195.273,105.693C198.923,105.693 202.158,103.343 203.286,99.871Z" style="fill:none;stroke:rgb(17,17,31);stroke-width:4.48px;"/>
        </g>
        <g transform="matrix(1.12236,0,0,1.11156,1520.25,2994.96)">
            <path d="M203.286,99.871C204.414,103.343 207.649,105.693 211.299,105.693C208.346,107.838 207.11,111.641 208.238,115.113C205.285,112.967 201.287,112.967 198.334,115.113C199.462,111.641 198.226,107.838 195.273,105.693C198.923,105.693 202.158,103.343 203.286,99.871Z" style="fill:none;stroke:rgb(17,17,31);stroke-width:4.48px;"/>
        </g>
        <g transform="matrix(1.12236,0,0,1.11156,1547.73,7428.48)">
            <path d="M203.286,99.871C204.414,103.343 207.649,105.693 211.299,105.693C208.346,107.838 207.11,111.641 208.238,115.113C205.285,112.967 201.287,112.967 198.334,115.113C199.462,111.641 198.226,107.838 195.273,105.693C198.923,105.693 202.158,103.343 203.286,99.871Z" style="fill:none;stroke:rgb(17,17,31);stroke-width:4.48px;"/>
        </g>
        <g transform="matrix(1.12236,0,0,1.11156,1528.23,10024.4)">
            <path d="M203.286,99.871C204.414,103.343 207.649,105.693 211.299,105.693C208.346,107.838 207.11,111.641 208.238,115.113C205.285,112.967 201.287,112.967 198.334,115.113C199.462,111.641 198.226,107.838 195.273,105.693C198.923,105.693 202.158,103.343 203.286,99.871Z" style="fill:none;stroke:rgb(17,17,31);stroke-width:4.48px;"/>
        </g>
        <g transform="matrix(0.707107,0.707107,-0.707107,0.707107,-29.5238,780.384)">
            <g transform="matrix(0.780281,0,0,0.781263,56.4012,22.7836)">
                <path d="M234.778,90.993L256.698,90.993" style="fill:none;stroke:rgb(175,173,251);stroke-width:6.4px;"/>
            </g>
            <g transform="matrix(4.77785e-17,-0.781263,0.780281,4.78386e-17,177.145,285.859)">
                <path d="M234.778,90.993L256.698,90.993" style="fill:none;stroke:rgb(175,173,251);stroke-width:6.4px;"/>
            </g>
        </g>
        <g transform="matrix(0.707107,0.707107,-0.707107,0.707107,-2.04321,5213.91)">
            <g transform="matrix(0.780281,0,0,0.781263,56.4012,22.7836)">
                <path d="M234.778,90.993L256.698,90.993" style="fill:none;stroke:rgb(175,173,251);stroke-width:6.4px;"/>
            </g>
            <g transform="matrix(4.77785e-17,-0.781263,0.780281,4.78386e-17,177.145,285.859)">
                <path d="M234.778,90.993L256.698,90.993" style="fill:none;stroke:rgb(175,173,251);stroke-width:6.4px;"/>
            </g>
        </g>
        <g transform="matrix(0.707107,0.707107,-0.707107,0.707107,-28.6315,3059.49)">
            <g transform="matrix(0.780281,0,0,0.781263,56.4012,22.7836)">
                <path d="M234.778,90.993L256.698,90.993" style="fill:none;stroke:rgb(175,173,251);stroke-width:6.4px;"/>
            </g>
            <g transform="matrix(4.77785e-17,-0.781263,0.780281,4.78386e-17,177.145,285.859)">
                <path d="M234.778,90.993L256.698,90.993" style="fill:none;stroke:rgb(175,173,251);stroke-width:6.4px;"/>
            </g>
        </g>
        <g transform="matrix(0.707107,0.707107,-0.707107,0.707107,-1.15087,7493.01)">
            <g transform="matrix(0.780281,0,0,0.781263,56.4012,22.7836)">
                <path d="M234.778,90.993L256.698,90.993" style="fill:none;stroke:rgb(175,173,251);stroke-width:6.4px;"/>
            </g>
            <g transform="matrix(4.77785e-17,-0.781263,0.780281,4.78386e-17,177.145,285.859)">
                <path d="M234.778,90.993L256.698,90.993" style="fill:none;stroke:rgb(175,173,251);stroke-width:6.4px;"/>
            </g>
        </g>
        <g transform="matrix(0.707107,0.707107,-0.707107,0.707107,-20.6486,10089)">
            <g transform="matrix(0.780281,0,0,0.781263,56.4012,22.7836)">
                <path d="M234.778,90.993L256.698,90.993" style="fill:none;stroke:rgb(175,173,251);stroke-width:6.4px;"/>
            </g>
            <g transform="matrix(4.77785e-17,-0.781263,0.780281,4.78386e-17,177.145,285.859)">
                <path d="M234.778,90.993L256.698,90.993" style="fill:none;stroke:rgb(175,173,251);stroke-width:6.4px;"/>
            </g>
        </g>
        <g transform="matrix(0.707107,0.707107,-0.707107,0.707107,2710.46,744.025)">
            <g transform="matrix(0.780281,0,0,0.781263,56.4012,22.7836)">
                <path d="M234.778,90.993L256.698,90.993" style="fill:none;stroke:rgb(175,173,251);stroke-width:6.4px;"/>
            </g>
            <g transform="matrix(4.77785e-17,-0.781263,0.780281,4.78386e-17,177.145,285.859)">
                <path d="M234.778,90.993L256.698,90.993" style="fill:none;stroke:rgb(175,173,251);stroke-width:6.4px;"/>
            </g>
        </g>
        <g transform="matrix(0.707107,0.707107,-0.707107,0.707107,2737.95,5177.55)">
            <g transform="matrix(0.780281,0,0,0.781263,56.4012,22.7836)">
                <path d="M234.778,90.993L256.698,90.993" style="fill:none;stroke:rgb(175,173,251);stroke-width:6.4px;"/>
            </g>
            <g transform="matrix(4.77785e-17,-0.781263,0.780281,4.78386e-17,177.145,285.859)">
                <path d="M234.778,90.993L256.698,90.993" style="fill:none;stroke:rgb(175,173,251);stroke-width:6.4px;"/>
            </g>
        </g>
        <g transform="matrix(0.707107,0.707107,-0.707107,0.707107,2711.36,3023.13)">
            <g transform="matrix(0.780281,0,0,0.781263,56.4012,22.7836)">
                <path d="M234.778,90.993L256.698,90.993" style="fill:none;stroke:rgb(175,173,251);stroke-width:6.4px;"/>
            </g>
            <g transform="matrix(4.77785e-17,-0.781263,0.780281,4.78386e-17,177.145,285.859)">
                <path d="M234.778,90.993L256.698,90.993" style="fill:none;stroke:rgb(175,173,251);stroke-width:6.4px;"/>
            </g>
        </g>
        <g transform="matrix(0.707107,0.707107,-0.707107,0.707107,2738.84,7456.65)">
            <g transform="matrix(0.780281,0,0,0.781263,56.4012,22.7836)">
                <path d="M234.778,90.993L256.698,90.993" style="fill:none;stroke:rgb(175,173,251);stroke-width:6.4px;"/>
            </g>
            <g transform="matrix(4.77785e-17,-0.781263,0.780281,4.78386e-17,177.145,285.859)">
                <path d="M234.778,90.993L256.698,90.993" style="fill:none;stroke:rgb(175,173,251);stroke-width:6.4px;"/>
            </g>
        </g>
        <g transform="matrix(0.707107,0.707107,-0.707107,0.707107,2719.34,10052.6)">
            <g transform="matrix(0.780281,0,0,0.781263,56.4012,22.7836)">
                <path d="M234.778,90.993L256.698,90.993" style="fill:none;stroke:rgb(175,173,251);stroke-width:6.4px;"/>
            </g>
            <g transform="matrix(4.77785e-17,-0.781263,0.780281,4.78386e-17,177.145,285.859)">
                <path d="M234.778,90.993L256.698,90.993" style="fill:none;stroke:rgb(175,173,251);stroke-width:6.4px;"/>
            </g>
        </g>
        <g transform="matrix(0.707107,0.707107,-0.707107,0.707107,2996.14,1313.3)">
            <g transform="matrix(0.780281,0,0,0.781263,56.4012,22.7836)">
                <path d="M234.778,90.993L256.698,90.993" style="fill:none;stroke:rgb(175,173,251);stroke-width:6.4px;"/>
            </g>
            <g transform="matrix(4.77785e-17,-0.781263,0.780281,4.78386e-17,177.145,285.859)">
                <path d="M234.778,90.993L256.698,90.993" style="fill:none;stroke:rgb(175,173,251);stroke-width:6.4px;"/>
            </g>
        </g>
        <g transform="matrix(0.707107,0.707107,-0.707107,0.707107,3023.62,5746.83)">
            <g transform="matrix(0.780281,0,0,0.781263,56.4012,22.7836)">
                <path d="M234.778,90.993L256.698,90.993" style="fill:none;stroke:rgb(175,173,251);stroke-width:6.4px;"/>
            </g>
            <g transform="matrix(4.77785e-17,-0.781263,0.780281,4.78386e-17,177.145,285.859)">
                <path d="M234.778,90.993L256.698,90.993" style="fill:none;stroke:rgb(175,173,251);stroke-width:6.4px;"/>
            </g>
        </g>
        <g transform="matrix(0.707107,0.707107,-0.707107,0.707107,2997.04,3592.41)">
            <g transform="matrix(0.780281,0,0,0.781263,56.4012,22.7836)">
                <path d="M234.778,90.993L256.698,90.993" style="fill:none;stroke:rgb(175,173,251);stroke-width:6.4px;"/>
            </g>
            <g transform="matrix(4.77785e-17,-0.781263,0.780281,4.78386e-17,177.145,285.859)">
                <path d="M234.778,90.993L256.698,90.993" style="fill:none;stroke:rgb(175,173,251);stroke-width:6.4px;"/>
            </g>
        </g>
        <g transform="matrix(0.707107,0.707107,-0.707107,0.707107,3024.52,8025.93)">
            <g transform="matrix(0.780281,0,0,0.781263,56.4012,22.7836)">
                <path d="M234.778,90.993L256.698,90.993" style="fill:none;stroke:rgb(175,173,251);stroke-width:6.4px;"/>
            </g>
            <g transform="matrix(4.77785e-17,-0.781263,0.780281,4.78386e-17,177.145,285.859)">
                <path d="M234.778,90.993L256.698,90.993" style="fill:none;stroke:rgb(175,173,251);stroke-width:6.4px;"/>
            </g>
        </g>
        <g transform="matrix(0.707107,0.707107,-0.707107,0.707107,3005.02,10621.9)">
            <g transform="matrix(0.780281,0,0,0.781263,56.4012,22.7836)">
                <path d="M234.778,90.993L256.698,90.993" style="fill:none;stroke:rgb(175,173,251);stroke-width:6.4px;"/>
            </g>
            <g transform="matrix(4.77785e-17,-0.781263,0.780281,4.78386e-17,177.145,285.859)">
                <path d="M234.778,90.993L256.698,90.993" style="fill:none;stroke:rgb(175,173,251);stroke-width:6.4px;"/>
            </g>
        </g>
        <g transform="matrix(0.707107,0.707107,-0.707107,0.707107,1069.36,259.442)">
            <g transform="matrix(0.780281,0,0,0.781263,56.4012,22.7836)">
                <path d="M234.778,90.993L256.698,90.993" style="fill:none;stroke:rgb(175,173,251);stroke-width:6.4px;"/>
            </g>
            <g transform="matrix(4.77785e-17,-0.781263,0.780281,4.78386e-17,177.145,285.859)">
                <path d="M234.778,90.993L256.698,90.993" style="fill:none;stroke:rgb(175,173,251);stroke-width:6.4px;"/>
            </g>
        </g>
        <g transform="matrix(0.707107,0.707107,-0.707107,0.707107,1096.84,4692.96)">
            <g transform="matrix(0.780281,0,0,0.781263,56.4012,22.7836)">
                <path d="M234.778,90.993L256.698,90.993" style="fill:none;stroke:rgb(175,173,251);stroke-width:6.4px;"/>
            </g>
            <g transform="matrix(4.77785e-17,-0.781263,0.780281,4.78386e-17,177.145,285.859)">
                <path d="M234.778,90.993L256.698,90.993" style="fill:none;stroke:rgb(175,173,251);stroke-width:6.4px;"/>
            </g>
        </g>
        <g transform="matrix(0.707107,0.707107,-0.707107,0.707107,1070.25,2538.55)">
            <g transform="matrix(0.780281,0,0,0.781263,56.4012,22.7836)">
                <path d="M234.778,90.993L256.698,90.993" style="fill:none;stroke:rgb(175,173,251);stroke-width:6.4px;"/>
            </g>
            <g transform="matrix(4.77785e-17,-0.781263,0.780281,4.78386e-17,177.145,285.859)">
                <path d="M234.778,90.993L256.698,90.993" style="fill:none;stroke:rgb(175,173,251);stroke-width:6.4px;"/>
            </g>
        </g>
        <g transform="matrix(0.707107,0.707107,-0.707107,0.707107,1097.74,6972.07)">
            <g transform="matrix(0.780281,0,0,0.781263,56.4012,22.7836)">
                <path d="M234.778,90.993L256.698,90.993" style="fill:none;stroke:rgb(175,173,251);stroke-width:6.4px;"/>
            </g>
            <g transform="matrix(4.77785e-17,-0.781263,0.780281,4.78386e-17,177.145,285.859)">
                <path d="M234.778,90.993L256.698,90.993" style="fill:none;stroke:rgb(175,173,251);stroke-width:6.4px;"/>
            </g>
        </g>
        <g transform="matrix(0.707107,0.707107,-0.707107,0.707107,1078.24,9568.02)">
            <g transform="matrix(0.780281,0,0,0.781263,56.4012,22.7836)">
                <path d="M234.778,90.993L256.698,90.993" style="fill:none;stroke:rgb(175,173,251);stroke-width:6.4px;"/>
            </g>
            <g transform="matrix(4.77785e-17,-0.781263,0.780281,4.78386e-17,177.145,285.859)">
                <path d="M234.778,90.993L256.698,90.993" style="fill:none;stroke:rgb(175,173,251);stroke-width:6.4px;"/>
            </g>
        </g>
        <g transform="matrix(0.707107,0.707107,-0.707107,0.707107,3600.25,-106.955)">
            <g transform="matrix(0.780281,0,0,0.781263,56.4012,22.7836)">
                <path d="M234.778,90.993L256.698,90.993" style="fill:none;stroke:rgb(175,173,251);stroke-width:6.4px;"/>
            </g>
            <g transform="matrix(4.77785e-17,-0.781263,0.780281,4.78386e-17,177.145,285.859)">
                <path d="M234.778,90.993L256.698,90.993" style="fill:none;stroke:rgb(175,173,251);stroke-width:6.4px;"/>
            </g>
        </g>
        <g transform="matrix(0.707107,0.707107,-0.707107,0.707107,3627.73,4326.57)">
            <g transform="matrix(0.780281,0,0,0.781263,56.4012,22.7836)">
                <path d="M234.778,90.993L256.698,90.993" style="fill:none;stroke:rgb(175,173,251);stroke-width:6.4px;"/>
            </g>
            <g transform="matrix(4.77785e-17,-0.781263,0.780281,4.78386e-17,177.145,285.859)">
                <path d="M234.778,90.993L256.698,90.993" style="fill:none;stroke:rgb(175,173,251);stroke-width:6.4px;"/>
            </g>
        </g>
        <g transform="matrix(0.707107,0.707107,-0.707107,0.707107,3601.14,2172.15)">
            <g transform="matrix(0.780281,0,0,0.781263,56.4012,22.7836)">
                <path d="M234.778,90.993L256.698,90.993" style="fill:none;stroke:rgb(175,173,251);stroke-width:6.4px;"/>
            </g>
            <g transform="matrix(4.77785e-17,-0.781263,0.780281,4.78386e-17,177.145,285.859)">
                <path d="M234.778,90.993L256.698,90.993" style="fill:none;stroke:rgb(175,173,251);stroke-width:6.4px;"/>
            </g>
        </g>
        <g transform="matrix(0.707107,0.707107,-0.707107,0.707107,3628.62,6605.67)">
            <g transform="matrix(0.780281,0,0,0.781263,56.4012,22.7836)">
                <path d="M234.778,90.993L256.698,90.993" style="fill:none;stroke:rgb(175,173,251);stroke-width:6.4px;"/>
            </g>
            <g transform="matrix(4.77785e-17,-0.781263,0.780281,4.78386e-17,177.145,285.859)">
                <path d="M234.778,90.993L256.698,90.993" style="fill:none;stroke:rgb(175,173,251);stroke-width:6.4px;"/>
            </g>
        </g>
        <g transform="matrix(0.707107,0.707107,-0.707107,0.707107,3609.12,9201.62)">
            <g transform="matrix(0.780281,0,0,0.781263,56.4012,22.7836)">
                <path d="M234.778,90.993L256.698,90.993" style="fill:none;stroke:rgb(175,173,251);stroke-width:6.4px;"/>
            </g>
            <g transform="matrix(4.77785e-17,-0.781263,0.780281,4.78386e-17,177.145,285.859)">
                <path d="M234.778,90.993L256.698,90.993" style="fill:none;stroke:rgb(175,173,251);stroke-width:6.4px;"/>
            </g>
        </g>
        <g transform="matrix(0.707107,-0.707107,0.707107,0.707107,1024.02,1380.7)">
            <g transform="matrix(0.780281,0,0,0.781263,56.4012,22.7836)">
                <path d="M234.778,90.993L256.698,90.993" style="fill:none;stroke:rgb(219,52,105);stroke-width:6.4px;"/>
            </g>
            <g transform="matrix(4.77785e-17,-0.781263,0.780281,4.78386e-17,177.145,285.859)">
                <path d="M234.778,90.993L256.698,90.993" style="fill:none;stroke:rgb(219,52,105);stroke-width:6.4px;"/>
            </g>
        </g>
        <g transform="matrix(0.707107,-0.707107,0.707107,0.707107,1051.5,5814.22)">
            <g transform="matrix(0.780281,0,0,0.781263,56.4012,22.7836)">
                <path d="M234.778,90.993L256.698,90.993" style="fill:none;stroke:rgb(219,52,105);stroke-width:6.4px;"/>
            </g>
            <g transform="matrix(4.77785e-17,-0.781263,0.780281,4.78386e-17,177.145,285.859)">
                <path d="M234.778,90.993L256.698,90.993" style="fill:none;stroke:rgb(219,52,105);stroke-width:6.4px;"/>
            </g>
        </g>
        <g transform="matrix(0.707107,-0.707107,0.707107,0.707107,1024.91,3659.8)">
            <g transform="matrix(0.780281,0,0,0.781263,56.4012,22.7836)">
                <path d="M234.778,90.993L256.698,90.993" style="fill:none;stroke:rgb(219,52,105);stroke-width:6.4px;"/>
            </g>
            <g transform="matrix(4.77785e-17,-0.781263,0.780281,4.78386e-17,177.145,285.859)">
                <path d="M234.778,90.993L256.698,90.993" style="fill:none;stroke:rgb(219,52,105);stroke-width:6.4px;"/>
            </g>
        </g>
        <g transform="matrix(0.707107,-0.707107,0.707107,0.707107,1052.39,8093.32)">
            <g transform="matrix(0.780281,0,0,0.781263,56.4012,22.7836)">
                <path d="M234.778,90.993L256.698,90.993" style="fill:none;stroke:rgb(219,52,105);stroke-width:6.4px;"/>
            </g>
            <g transform="matrix(4.77785e-17,-0.781263,0.780281,4.78386e-17,177.145,285.859)">
                <path d="M234.778,90.993L256.698,90.993" style="fill:none;stroke:rgb(219,52,105);stroke-width:6.4px;"/>
            </g>
        </g>
        <g transform="matrix(0.707107,-0.707107,0.707107,0.707107,1032.89,10689.3)">
            <g transform="matrix(0.780281,0,0,0.781263,56.4012,22.7836)">
                <path d="M234.778,90.993L256.698,90.993" style="fill:none;stroke:rgb(219,52,105);stroke-width:6.4px;"/>
            </g>
            <g transform="matrix(4.77785e-17,-0.781263,0.780281,4.78386e-17,177.145,285.859)">
                <path d="M234.778,90.993L256.698,90.993" style="fill:none;stroke:rgb(219,52,105);stroke-width:6.4px;"/>
            </g>
        </g>
        <g transform="matrix(1,0,0,1,934.08,1973.34)">
            <g transform="matrix(0.780281,0,0,0.781263,56.4012,22.7836)">
                <path d="M234.778,90.993L256.698,90.993" style="fill:none;stroke:rgb(219,52,105);stroke-width:6.4px;"/>
            </g>
            <g transform="matrix(4.77785e-17,-0.781263,0.780281,4.78386e-17,177.145,285.859)">
                <path d="M234.778,90.993L256.698,90.993" style="fill:none;stroke:rgb(219,52,105);stroke-width:6.4px;"/>
            </g>
        </g>
        <g transform="matrix(1,0,0,1,961.561,6406.86)">
            <g transform="matrix(0.780281,0,0,0.781263,56.4012,22.7836)">
                <path d="M234.778,90.993L256.698,90.993" style="fill:none;stroke:rgb(219,52,105);stroke-width:6.4px;"/>
            </g>
            <g transform="matrix(4.77785e-17,-0.781263,0.780281,4.78386e-17,177.145,285.859)">
                <path d="M234.778,90.993L256.698,90.993" style="fill:none;stroke:rgb(219,52,105);stroke-width:6.4px;"/>
            </g>
        </g>
        <g transform="matrix(1,0,0,1,934.973,4252.45)">
            <g transform="matrix(0.780281,0,0,0.781263,56.4012,22.7836)">
                <path d="M234.778,90.993L256.698,90.993" style="fill:none;stroke:rgb(219,52,105);stroke-width:6.4px;"/>
            </g>
            <g transform="matrix(4.77785e-17,-0.781263,0.780281,4.78386e-17,177.145,285.859)">
                <path d="M234.778,90.993L256.698,90.993" style="fill:none;stroke:rgb(219,52,105);stroke-width:6.4px;"/>
            </g>
        </g>
        <g transform="matrix(1,0,0,1,962.453,8685.97)">
            <g transform="matrix(0.780281,0,0,0.781263,56.4012,22.7836)">
                <path d="M234.778,90.993L256.698,90.993" style="fill:none;stroke:rgb(219,52,105);stroke-width:6.4px;"/>
            </g>
            <g transform="matrix(4.77785e-17,-0.781263,0.780281,4.78386e-17,177.145,285.859)">
                <path d="M234.778,90.993L256.698,90.993" style="fill:none;stroke:rgb(219,52,105);stroke-width:6.4px;"/>
            </g>
        </g>
        <g transform="matrix(1,0,0,1,942.956,11281.9)">
            <g transform="matrix(0.780281,0,0,0.781263,56.4012,22.7836)">
                <path d="M234.778,90.993L256.698,90.993" style="fill:none;stroke:rgb(219,52,105);stroke-width:6.4px;"/>
            </g>
            <g transform="matrix(4.77785e-17,-0.781263,0.780281,4.78386e-17,177.145,285.859)">
                <path d="M234.778,90.993L256.698,90.993" style="fill:none;stroke:rgb(219,52,105);stroke-width:6.4px;"/>
            </g>
        </g>
        <g transform="matrix(0.866025,0.5,-0.5,0.866025,-1.16507,1739.28)">
            <g transform="matrix(0.780281,0,0,0.781263,56.4012,22.7836)">
                <path d="M234.778,90.993L256.698,90.993" style="fill:none;stroke:rgb(117,230,224);stroke-width:6.4px;"/>
            </g>
            <g transform="matrix(4.77785e-17,-0.781263,0.780281,4.78386e-17,177.145,285.859)">
                <path d="M234.778,90.993L256.698,90.993" style="fill:none;stroke:rgb(117,230,224);stroke-width:6.4px;"/>
            </g>
        </g>
        <g transform="matrix(0.866025,0.5,-0.5,0.866025,26.3155,6172.8)">
            <g transform="matrix(0.780281,0,0,0.781263,56.4012,22.7836)">
                <path d="M234.778,90.993L256.698,90.993" style="fill:none;stroke:rgb(117,230,224);stroke-width:6.4px;"/>
            </g>
            <g transform="matrix(4.77785e-17,-0.781263,0.780281,4.78386e-17,177.145,285.859)">
                <path d="M234.778,90.993L256.698,90.993" style="fill:none;stroke:rgb(117,230,224);stroke-width:6.4px;"/>
            </g>
        </g>
        <g transform="matrix(0.866025,0.5,-0.5,0.866025,-0.27272,4018.38)">
            <g transform="matrix(0.780281,0,0,0.781263,56.4012,22.7836)">
                <path d="M234.778,90.993L256.698,90.993" style="fill:none;stroke:rgb(117,230,224);stroke-width:6.4px;"/>
            </g>
            <g transform="matrix(4.77785e-17,-0.781263,0.780281,4.78386e-17,177.145,285.859)">
                <path d="M234.778,90.993L256.698,90.993" style="fill:none;stroke:rgb(117,230,224);stroke-width:6.4px;"/>
            </g>
        </g>
        <g transform="matrix(0.866025,0.5,-0.5,0.866025,27.2079,8451.9)">
            <g transform="matrix(0.780281,0,0,0.781263,56.4012,22.7836)">
                <path d="M234.778,90.993L256.698,90.993" style="fill:none;stroke:rgb(117,230,224);stroke-width:6.4px;"/>
            </g>
            <g transform="matrix(4.77785e-17,-0.781263,0.780281,4.78386e-17,177.145,285.859)">
                <path d="M234.778,90.993L256.698,90.993" style="fill:none;stroke:rgb(117,230,224);stroke-width:6.4px;"/>
            </g>
        </g>
        <g transform="matrix(0.866025,0.5,-0.5,0.866025,7.7102,11047.9)">
            <g transform="matrix(0.780281,0,0,0.781263,56.4012,22.7836)">
                <path d="M234.778,90.993L256.698,90.993" style="fill:none;stroke:rgb(117,230,224);stroke-width:6.4px;"/>
            </g>
            <g transform="matrix(4.77785e-17,-0.781263,0.780281,4.78386e-17,177.145,285.859)">
                <path d="M234.778,90.993L256.698,90.993" style="fill:none;stroke:rgb(117,230,224);stroke-width:6.4px;"/>
            </g>
        </g>
        <g transform="matrix(0.866025,0.5,-0.5,0.866025,2690.18,1902.14)">
            <g transform="matrix(0.780281,0,0,0.781263,56.4012,22.7836)">
                <path d="M234.778,90.993L256.698,90.993" style="fill:none;stroke:rgb(117,230,224);stroke-width:6.4px;"/>
            </g>
            <g transform="matrix(4.77785e-17,-0.781263,0.780281,4.78386e-17,177.145,285.859)">
                <path d="M234.778,90.993L256.698,90.993" style="fill:none;stroke:rgb(117,230,224);stroke-width:6.4px;"/>
            </g>
        </g>
        <g transform="matrix(0.866025,0.5,-0.5,0.866025,2717.66,6335.66)">
            <g transform="matrix(0.780281,0,0,0.781263,56.4012,22.7836)">
                <path d="M234.778,90.993L256.698,90.993" style="fill:none;stroke:rgb(117,230,224);stroke-width:6.4px;"/>
            </g>
            <g transform="matrix(4.77785e-17,-0.781263,0.780281,4.78386e-17,177.145,285.859)">
                <path d="M234.778,90.993L256.698,90.993" style="fill:none;stroke:rgb(117,230,224);stroke-width:6.4px;"/>
            </g>
        </g>
        <g transform="matrix(0.866025,0.5,-0.5,0.866025,2698.16,8931.61)">
            <g transform="matrix(0.780281,0,0,0.781263,56.4012,22.7836)">
                <path d="M234.778,90.993L256.698,90.993" style="fill:none;stroke:rgb(117,230,224);stroke-width:6.4px;"/>
            </g>
            <g transform="matrix(4.77785e-17,-0.781263,0.780281,4.78386e-17,177.145,285.859)">
                <path d="M234.778,90.993L256.698,90.993" style="fill:none;stroke:rgb(117,230,224);stroke-width:6.4px;"/>
            </g>
        </g>
        <g transform="matrix(0.866025,0.5,-0.5,0.866025,2691.07,4181.25)">
            <g transform="matrix(0.780281,0,0,0.781263,56.4012,22.7836)">
                <path d="M234.778,90.993L256.698,90.993" style="fill:none;stroke:rgb(117,230,224);stroke-width:6.4px;"/>
            </g>
            <g transform="matrix(4.77785e-17,-0.781263,0.780281,4.78386e-17,177.145,285.859)">
                <path d="M234.778,90.993L256.698,90.993" style="fill:none;stroke:rgb(117,230,224);stroke-width:6.4px;"/>
            </g>
        </g>
        <g transform="matrix(0.866025,0.5,-0.5,0.866025,2718.55,8614.77)">
            <g transform="matrix(0.780281,0,0,0.781263,56.4012,22.7836)">
                <path d="M234.778,90.993L256.698,90.993" style="fill:none;stroke:rgb(117,230,224);stroke-width:6.4px;"/>
            </g>
            <g transform="matrix(4.77785e-17,-0.781263,0.780281,4.78386e-17,177.145,285.859)">
                <path d="M234.778,90.993L256.698,90.993" style="fill:none;stroke:rgb(117,230,224);stroke-width:6.4px;"/>
            </g>
        </g>
        <g transform="matrix(0.866025,0.5,-0.5,0.866025,2699.05,11210.7)">
            <g transform="matrix(0.780281,0,0,0.781263,56.4012,22.7836)">
                <path d="M234.778,90.993L256.698,90.993" style="fill:none;stroke:rgb(117,230,224);stroke-width:6.4px;"/>
            </g>
            <g transform="matrix(4.77785e-17,-0.781263,0.780281,4.78386e-17,177.145,285.859)">
                <path d="M234.778,90.993L256.698,90.993" style="fill:none;stroke:rgb(117,230,224);stroke-width:6.4px;"/>
            </g>
        </g>
    </g>
</svg>
